<svg version="1.2" xmlns="http://www.w3.org/2000/svg" viewBox="0 0 2048 1024" width="2048" height="1024"><style>.a{fill:#383838}.b{fill:#494949}</style><path class="a" d="m48.3 204c-22.9 0-38.7 15.8-38.7 38.3v231.4c0 22.5 15.8 38.3 38.7 38.3h192.3v-180.4h-96.4v103.4h-38.2v-153.6h117.4l15.4-39.1v-38.3zm327.8 169l8.8-91.6h10.6l8.8 91.6zm-66-169l-43.1 269.7v38.3h95.9l6.2-62h42.2l5.7 62h96.4v-38.3l-43.1-269.7zm346.2 308h80.6l23.7-147.8h7.9v147.8h93.8v-38.3l-31.3-269.7h-107.8l-23.3 121.4h-6.6l-23.3-121.4h-107.4l-31.7 269.7v38.3h94.2v-147.8h7.5zm366.9-230.6v153.6h-38.2v-153.6zm57.6 230.6c22.9 0 38.7-15.9 38.7-38.3v-231.5c0-22.4-15.8-38.2-38.7-38.2h-153.6c-22.8 0-38.7 15.8-38.7 38.2v231.5c0 22.4 15.9 38.3 38.7 38.3zm208.6-230.6v57.6h-38.3v-57.6zm-134.6-77.4v308h96.3v-96h19.4l26 96h94.1v-38.3l-30.3-75.7c14.5-4 25.5-20.2 25.5-34.8v-121c0-22.4-15.9-38.2-38.3-38.2zm358.2 308v-308h-96v308zm26.4 0h217.8v-77h-108.2v-10.6l104.3-141.2v-79.2h-213.9v38.2l15 39.2h88.9v10.6l-103.9 141.2zm450.2 0v-77h-110v-42.2h94.6v-77h-94.6v-34.4h94.6l15.4-39.1v-38.3h-206v308z"/><path class="b" d="m143.9 609.9l52.6 34.9v12.7h-69v48.5h105.6c14.1 0 24.1-10 24.1-24.1v-44c0-15.6-3.1-24.1-16.4-33l-52.6-35.2v-8.8h59.6l9.4-25v-23.8h-105.3c-14.4 0-24.4 10-24.4 24.1v40.7c0 15.5 3.1 23.8 16.4 33zm293.6-49v145.1h60.7v-145.1h29.1l9.6-24.7v-24.1h-135.7v48.8zm333.8-48.8v145.4h-24.1v-145.4h-60.7v169.8c0 14.1 10 24.1 24.4 24.1h121.1v-193.9zm278.9 48.8h24.4v96.6h-24.4zm60.7 145.2c14.1 0 24.1-10 24.1-24.1v-145.7c0-14.2-10-24.1-24.1-24.1h-121.1v193.9zm242.4 0v-193.9h-60.4v193.9zm242.7-145.2v96.7h-24.1v-96.7zm36.2 145.2c14.4 0 24.4-10 24.4-24.1v-145.7c0-14.2-10-24.1-24.4-24.1h-96.6c-14.4 0-24.4 9.9-24.4 24.1v145.7c0 14.1 10 24.1 24.4 24.1zm193-96.1l52.7 34.9v12.7h-69v48.5h105.5c14.2 0 24.1-10 24.1-24.1v-44.1c0-15.5-3-24.1-16.3-32.9l-52.6-35.2v-8.9h59.5l9.4-24.9v-23.8h-105.2c-14.4 0-24.4 9.9-24.4 24.1v40.7c0 15.5 3 23.8 16.3 33z"/></svg>