<svg version="1.2" xmlns="http://www.w3.org/2000/svg" viewBox="0 0 2048 1024" width="2048" height="1024"><style>.a{fill:#fff}</style><path class="a" d="m52.8 461.1c0 0 26.7 0 26.7 0 0 0 2 41.6 2 41.6 0 0-26.7 0-26.7 0zm74.1 97c15.8-0.1 25.4-11.8 23.7-28 0 0-0.5-6.1-1.2-15.2-0.7-9.1-1.5-21.2-2.1-33.4-0.4-12.2-0.7-24.3-0.9-33.4 0-9.1 0-15.2 0-15.2 0.2-16.2-10.6-27.6-26.5-27.6 0 0-8.4 0-20.9 0-6.3 0-13.6 0-21.5 0-7.8 0-16.2-0.1-24.6-0.1-8.3 0-16.7 0-24.6 0-7.8 0-15.1 0-21.4 0-12.6 0-21 0-21 0 0 0-0.4 13.9-0.6 34.8 0.1 10.4 0.4 22.6 0.9 35.6 0.7 13.1 1.7 27 2.9 40.9 1.4 13.9 3 27.8 4.8 40.8 2 13.1 4 25.2 5.8 35.7 4.1 20.8 7.2 34.7 7.2 34.7 0 0 16.4 0 32.8-0.1 16.4 0 32.8-0.1 32.8-0.1 0 0-3.5-17.3-6.6-34.6-2.8-17.3-5.3-34.6-5.3-34.6zm135-97.1c0 0 1.6 41.3 1.6 41.3 0 0-26.6 0.1-26.6 0.1 0 0-1.7-41.4-1.7-41.4zm-93.5-55.7c0 0-0.3 13.9-0.5 34.7 0.1 10.3 0.3 22.5 0.7 35.5 0.6 12.9 1.4 26.8 2.4 40.6 1.1 13.9 2.4 27.8 3.8 40.7 1.6 13 3.2 25.2 4.8 35.6 3.3 20.8 5.7 34.6 5.7 34.6 0 0 16.4-0.1 32.8-0.1 16.4-0.1 32.9-0.2 32.9-0.2 0 0-2.8-17.3-5.3-34.5-2.2-17.2-4.2-34.5-4.2-34.5 0 0 13.4 0 13.4 0 0 0 6.4 17.2 13 34.4 6.8 17.2 13.9 34.4 13.9 34.4 0 0 16.1-0.1 32.1-0.1 16-0.1 32.1-0.2 32.1-0.2 0 0-3.7-27.5-3.7-27.5 0 0-6.9-13.5-13.6-27.1-6.6-13.5-13.1-27.1-13.1-27.1 9.8-2.8 16.5-14.5 15.8-24.9 0 0-1.2-21.7-2-43.4-0.5-21.6-0.6-43.3-0.6-43.3 0.1-16.1-10.7-27.4-26.3-27.4zm276 55.5c0 0 0.1 6.8 0.4 17.1 0.3 10.3 0.8 24 1.4 37.7 0.8 13.7 1.7 27.4 2.4 37.6 0.8 10.3 1.4 17.2 1.4 17.2 0 0-26.4 0.1-26.4 0.1 0 0-0.6-6.9-1.4-17.2-0.8-10.2-1.7-24-2.5-37.7-0.7-13.7-1.2-27.4-1.6-37.7-0.2-10.3-0.3-17.1-0.3-17.1zm50.6 164.4c15.6-0.1 25.2-11.5 23.6-27.5 0 0-0.9-10.3-2.2-25.8-0.5-7.7-1.2-16.8-1.8-26.4-0.6-9.7-1.1-20-1.6-30.3-0.5-10.3-0.8-20.6-1.1-30.2-0.3-9.7-0.4-18.7-0.6-26.4-0.1-15.4-0.1-25.7-0.1-25.7 0.1-16-10.7-27.3-26.6-27.3 0 0-6.7 0-16.7 0-10 0-23.4-0.1-36.7-0.1-13.3 0-26.7 0-36.7 0-10 0-16.7 0-16.7 0-15.9 0-27.1 11.3-27.3 27.3 0 0 0 10.4 0.2 25.9 0.1 7.8 0.4 16.8 0.7 26.6 0.4 9.7 0.9 20 1.4 30.4 0.7 10.3 1.4 20.7 2.2 30.4 0.8 9.7 1.7 18.8 2.4 26.5 1.7 15.6 2.9 26 2.9 26 2.1 16 14.5 27.3 30 27.2zm118.8-0.8c15.3-0.1 25.2-11.5 24-27.4 0 0-0.8-12-1.9-29.9-0.5-9-1.1-19.4-1.6-30.6-0.5-11.2-0.9-23.2-1.3-35.1-0.3-12-0.5-23.9-0.7-35.1-0.1-11.2-0.2-21.6-0.2-30.6 0.1-17.9 0.2-29.8 0.2-29.8 0 0-16.6-0.1-33.3-0.1-16.7 0-33.3 0-33.3 0 0 0-0.2 10.2-0.3 25.6 0 7.7 0.1 16.7 0.1 26.3 0.2 9.6 0.3 19.8 0.6 30.1 0.3 10.3 0.6 20.5 1 30.1 0.4 9.6 0.9 18.6 1.3 26.3 0.9 15.4 1.6 25.7 1.6 25.7 0 0-38.5 0.2-38.5 0.2 0 0 1.1 13.7 2.3 27.4 1.2 13.7 2.6 27.5 2.6 27.5zm190.5-1.6c0 0-0.7-13.6-1.3-27.2-0.5-13.5-1-27.1-1-27.1 0 0-18.9 0.1-37.9 0.2-18.9 0.2-37.8 0.3-37.8 0.3 0 0-1.2-29.9-1.2-29.9 0 0 16.3 0 32.7-0.1 16.3-0.1 32.6-0.2 32.6-0.2 0 0-0.3-13.5-0.6-27.1-0.3-13.5-0.5-27.1-0.5-27.1 0 0-16.4 0.1-32.8 0.1-16.4 0.1-32.8 0.1-32.8 0.1 0 0-0.3-24.2-0.3-24.2 0 0 16.4 0 32.8-0.1 16.5 0 32.9 0 32.9 0 0 0 10.6-27.5 10.6-27.5 0 0 0.1-26.9 0.1-26.9 0 0-8.9 0-22.3-0.1-6.7 0-14.5 0-22.9 0-8.4 0-17.3 0-26.3 0-8.9 0-17.9-0.1-26.2-0.1-8.4 0-16.2 0-22.9 0-13.5 0-22.4 0-22.4 0 0 0-0.1 13.6-0.2 34 0 10.2 0.1 22.1 0.3 34.9 0.2 12.8 0.6 26.4 1 40 0.5 13.7 1 27.3 1.6 40.1 0.7 12.8 1.4 24.7 2 34.9 1.4 20.5 2.4 34.2 2.4 34.2zm40.8-216.7c-15.9 0-27 11.1-27 26.9 0 0 0 10.1 0 25.4 0.1 7.6 0.2 16.5 0.3 26 0.1 9.5 0.2 19.7 0.4 29.9 0.2 10.1 0.5 20.3 0.7 29.8 0.3 9.6 0.5 18.5 0.8 26.1 0.5 15.3 0.9 25.4 0.9 25.4 0.6 15.8 11.9 26.9 27.5 26.7 0 0 7.1 0 17.8-0.1 10.7-0.1 24.9-0.3 39.2-0.4 14.2-0.1 28.5-0.3 39.2-0.4 10.7-0.1 17.8-0.2 17.8-0.2 0 0-0.2-13.4-0.4-26.9-0.2-13.4-0.4-26.9-0.4-26.9 0 0-18.8 0.2-37.7 0.3-18.8 0.1-37.7 0.2-37.7 0.2 0 0-0.1-6.7-0.3-16.8-0.2-10.1-0.5-23.5-0.7-36.9-0.1-13.5-0.2-26.9-0.3-37-0.1-10.1-0.1-16.8-0.1-16.8 0 0 16.4 0 32.8 0 16.5-0.1 32.9-0.1 32.9-0.1 0 0 10.3-27.3 10.3-27.3 0 0 0.1-26.7 0.1-26.7zm165.2 54.1c0 0 0.1 10.1 0.1 25.1 0 7.5 0 16.3 0 25.7 0.1 9.4 0.1 19.4 0.1 29.4 0.1 10 0.1 20.1 0.2 29.5 0 9.4 0.1 18.2 0.1 25.7 0.1 15.1 0.2 25.1 0.2 25.1 0 0 16.4-0.1 32.8-0.3 16.4-0.2 32.9-0.4 32.9-0.4 0 0 0-10 0.1-25 0.1-7.5 0.1-16.3 0.2-25.6 0-9.4 0-19.4 0.1-29.4 0-10 0-20 0.1-29.3 0-9.4 0-18.1 0-25.6 0-15 0.1-25 0.1-25 0 0 32 0 32 0 0 0 10.8-27.1 10.8-27.1 0 0-0.1-26.4-0.1-26.4 0 0-9.3 0-23.4 0-7-0.1-15.2-0.1-23.9-0.1-8.8 0-18.2 0-27.5 0-9.4-0.1-18.7-0.1-27.5-0.1-8.8 0-17 0-24 0-14 0-23.4-0.1-23.4-0.1 0 0 0 13.5 0 27 0 13.5 0 27 0 27zm376 43.7c0 0-1.8-6.1-4.5-15.2-2.8-9-6.5-21.1-10.3-33.2-3.8-12.1-7.7-24.2-10.7-33.3-3-9.1-5-15.2-5-15.2 0 0-17.7 0-35.4-0.1-17.7 0-35.5 0-35.5 0 0 0 0.1 13.1 0.2 32.9-0.1 9.8-0.1 21.3-0.2 33.7-0.2 12.3-0.3 25.5-0.6 38.6-0.3 13.2-0.6 26.4-1 38.7-0.4 12.4-0.8 23.9-1.2 33.8-0.8 19.8-1.4 33-1.4 33 0 0 15.1-0.2 30.1-0.4 15.1-0.2 30.2-0.4 30.2-0.4 0 0 1.5-26.1 1.5-26.1 0 0-1.3-17.7-2.6-35.4-1.5-17.6-3.1-35.3-3.1-35.3 0 0 5.2-0.1 5.2-0.1 0 0 1.8 6.1 4.4 15.1 2.6 9.1 6.1 21.2 9.4 33.2 3.3 12.1 6.6 24.2 8.9 33.2 2.4 9.1 3.9 15.1 3.9 15.1 0 0 17.4-0.2 34.8-0.5 17.4-0.2 34.8-0.4 34.8-0.4 0 0 1.1-13.1 2.5-32.6 0.6-9.8 1.3-21.2 1.9-33.4 0.6-12.2 1.2-25.3 1.7-38.3 0.4-13 0.7-26 1-38.2 0.1-12.2 0.2-23.6 0.3-33.4-0.1-19.5-0.2-32.5-0.2-32.5 0 0-15.5 0-30.9-0.1-15.4 0-30.9 0-30.9 0 0 0 0.2 26 0.2 26 0 0 2.2 17.7 4.2 35.3 2 17.7 3.8 35.4 3.8 35.4zm141.4 110.5c0 0 1.2-12.9 2.9-32.4 0.8-9.7 1.7-21 2.5-33.1 0.7-12.1 1.4-25.1 2-38 0.5-12.9 0.9-25.9 1.2-38 0.2-12.1 0.3-23.4 0.4-33.1-0.1-19.4-0.3-32.3-0.3-32.3 0 0-16.6-0.1-33.3-0.1-16.7 0-33.3-0.1-33.3-0.1 0 0 0.1 13 0.2 32.5 0 9.7-0.1 21.1-0.3 33.3-0.3 12.2-0.6 25.2-1 38.2-0.6 12.9-1.2 25.9-1.8 38.1-0.7 12.2-1.4 23.6-2.1 33.4-1.5 19.5-2.6 32.5-2.6 32.5zm64.2-155c0 0-0.1 9.6-0.5 24.1-0.2 7.2-0.5 15.6-0.9 24.7-0.5 9-1 18.6-1.6 28.3-0.6 9.6-1.3 19.3-2.1 28.3-0.7 9-1.5 17.5-2.2 24.7-1.5 14.5-2.5 24.2-2.5 24.2 0 0 16.4-0.3 32.8-0.5 16.5-0.2 32.9-0.5 32.9-0.5 0 0 1.2-9.6 2.9-24 0.7-7.2 1.6-15.6 2.5-24.6 0.8-9 1.6-18.6 2.3-28.2 0.7-9.6 1.3-19.1 1.8-28.1 0.4-9 0.7-17.4 1-24.6 0.4-14.4 0.6-23.9 0.6-23.9 0 0 32.1-0.1 32.1-0.1 0 0 10.9-26 10.9-26 0 0-0.3-25.3-0.3-25.3 0 0-9.4-0.1-23.4-0.1-7.1 0-15.2 0-24-0.1-8.8 0-18.2 0-27.5 0-9.4 0-18.8-0.1-27.5-0.1-8.8 0-17 0-24 0-14.1-0.1-23.4-0.1-23.4-0.1 0 0 0.1 13 0.2 26 0 13-0.1 25.9-0.1 25.9zm218.7-0.4c0 0-1.5 37.9-1.5 37.9 0 0-26.5 0.1-26.5 0.1 0 0 1.4-37.9 1.4-37.9zm-93.8-51.1c0 0 0.2 12.8 0.3 31.9 0 9.5-0.2 20.7-0.5 32.6-0.4 12-0.9 24.7-1.6 37.4-0.8 12.8-1.8 25.5-2.8 37.5-1.1 11.9-2.3 23.1-3.3 32.7-2.4 19.1-4.1 31.9-4.1 31.9 0 0 16.4-0.3 32.8-0.5 16.5-0.3 32.9-0.5 32.9-0.5 0 0 2.4-15.8 4.5-31.6 1.9-15.8 3.6-31.6 3.6-31.6 0 0 13.4-0.2 13.4-0.2 0 0 2.7 15.8 5.2 31.5 2.3 15.7 4.2 31.4 4.2 31.4 0 0 16.1-0.3 32.2-0.5 16-0.3 32.1-0.5 32.1-0.5 0 0 4.2-25 4.2-25 0 0-3.4-12.3-7-24.6-3.8-12.3-7.7-24.7-7.7-24.7 10.3-2.6 18.9-13.3 19.7-22.8 0 0 1.4-19.8 2.3-39.5 0.5-19.8 0.6-39.5 0.6-39.5-0.1-14.6-11.4-25-27-25.1zm276.3 50.8c0 0-0.2 6.2-0.6 15.5-0.5 9.3-1.3 21.7-2.2 34.1-1.2 12.3-2.6 24.7-3.7 34-1.3 9.3-2.2 15.5-2.2 15.5 0 0-26.4 0.4-26.4 0.4 0 0 0.9-6.3 2.1-15.6 1.1-9.3 2.4-21.7 3.6-34.2 0.9-12.4 1.7-24.8 2.2-34.1 0.3-9.4 0.5-15.6 0.5-15.6zm21.9 148.3c15.6-0.3 28.6-10.6 31.6-25 0 0 1.7-9.3 4.1-23.2 1.1-7 2.3-15.1 3.4-23.8 1.1-8.7 2.2-18 3.1-27.3 0.8-9.3 1.5-18.6 2.1-27.3 0.4-8.7 0.7-16.8 1-23.7 0.2-14 0.2-23.3 0.2-23.3-0.2-14.3-11.5-24.5-27.5-24.6 0 0-6.7 0-16.7 0-10-0.1-23.4-0.1-36.7-0.1-13.4-0.1-26.7-0.1-36.8-0.1-10-0.1-16.7-0.1-16.7-0.1-15.9 0-26.6 10.3-26.5 24.9 0 0 0 9.4-0.2 23.6-0.1 7-0.4 15.3-0.8 24.1-0.4 8.8-1 18.3-1.7 27.7-0.8 9.4-1.6 18.8-2.6 27.7-0.9 8.8-1.9 17.1-2.8 24.1-2 14.2-3.5 23.6-3.5 23.6-2.4 14.6 6.6 24.8 22.2 24.5z"/></svg>